# xmcd
#
# Track frame offsets:
#	150
#	18899
#	33728
#	55848
#	75569
#	94839
#	109412
#	129731
#	148270
#	164165
#	188386
#	211858
#
# Disc length: 3251 seconds
# Revision: 0
# Processed by: cddbd v1.5.2PL0 Copyright (c) Steve Scherf et al.
# Submitted via: dBpowerAMP V12.0
#
DISCID=a70cb10c
DTITLE=Various Artist - Set me free
DYEAR=1900
DGENRE=
TTITLE0=Various Artist - Set me free
TTITLE1=I was Glad
TTITLE2=I long to be a reflection of you love
TTITLE3=In the House of the Lord
TTITLE4=You are my Shield
TTITLE5=Your Grace
TTITLE6=I surrender
TTITLE7=By your grace
TTITLE8=You will never leave me
TTITLE9=L'Alpha et l'Omega
TTITLE10=The Cross of Jesus
TTITLE11=O come to the Lord
EXTD=
EXTT0=
EXTT1=
EXTT2=
EXTT3=
EXTT4=
EXTT5=
EXTT6=
EXTT7=
EXTT8=
EXTT9=
EXTT10=
EXTT11=
PLAYORDER=
